<?xml version="1.0" standalone="no"?>
<!DOCTYPE svg PUBLIC "-//W3C//DTD SVG 20010904//EN"
 "http://www.w3.org/TR/2001/REC-SVG-20010904/DTD/svg10.dtd">
<svg version="1.0" xmlns="http://www.w3.org/2000/svg"
 width="3055.000000pt" height="414.000000pt" viewBox="0 0 3055.000000 414.000000"
 preserveAspectRatio="xMidYMid meet">

<g transform="translate(0.000000,414.000000) scale(0.100000,-0.100000)"
fill="rgba(255, 255, 255, 0.87)" stroke="none">
<path d="M29990 3859 c-2203 -160 -4064 -583 -5770 -1311 -1327 -566 -2550
-1350 -3380 -2165 l-155 -152 554 -1 554 0 151 144 c189 180 277 260 441 401
1254 1078 2865 1931 4690 2480 905 273 1953 487 2835 580 316 33 311 32 250
32 -30 0 -107 -4 -170 -8z"/>
<path d="M9817 2375 c-114 -140 -207 -259 -207 -264 0 -5 158 -225 350 -490
193 -264 350 -483 350 -486 0 -3 -333 -5 -739 -5 l-739 0 -179 -191 c-98 -105
-179 -195 -181 -200 -2 -5 447 -9 1067 -9 l1070 0 182 -250 182 -250 414 0
c355 0 413 2 406 14 -15 26 -1758 2385 -1763 2385 -3 1 -98 -114 -213 -254z"/>
<path d="M1045 2533 c-142 -11 -287 -49 -363 -94 -49 -29 -119 -95 -148 -141
-13 -20 -33 -65 -45 -100 -20 -56 -23 -89 -27 -293 -5 -255 5 -349 43 -432 45
-100 153 -192 271 -234 142 -49 134 -49 1270 -49 l1064 0 0 -260 0 -260 -1356
0 -1357 0 6 -37 c4 -21 22 -70 41 -109 65 -131 189 -222 371 -270 66 -18 130
-19 1265 -19 1112 0 1200 1 1271 18 210 49 340 171 378 355 18 86 14 574 -4
647 -45 173 -181 289 -412 353 l-98 27 -1052 3 -1053 3 0 244 0 245 1280 0
c897 0 1280 3 1280 11 0 5 -12 36 -27 67 -35 70 -116 159 -191 209 -78 51
-225 99 -344 112 -87 10 -1950 14 -2063 4z"/>
<path d="M4710 1385 l0 -1155 350 0 350 0 0 440 0 440 939 0 c575 0 978 4
1040 10 356 37 549 182 596 447 20 110 19 393 -1 491 -56 273 -296 438 -684
472 -69 6 -608 10 -1352 10 l-1238 0 0 -1155z m2552 722 c58 -23 103 -72 119
-129 7 -26 10 -94 7 -173 -3 -108 -7 -136 -24 -165 -26 -45 -72 -76 -135 -89
-33 -7 -341 -11 -934 -11 l-885 0 0 295 0 296 903 -3 c844 -3 905 -4 949 -21z"/>
<path d="M13005 2533 c-277 -23 -477 -143 -548 -329 -22 -59 -22 -60 -25 -794
-2 -501 1 -751 8 -787 37 -178 178 -307 400 -365 l85 -23 1175 0 1175 0 88 22
c148 38 232 93 298 195 37 57 79 164 79 200 0 17 -53 18 -1300 18 l-1300 0 0
730 0 730 1305 0 1305 0 -19 50 c-79 208 -262 321 -570 350 -95 9 -2050 12
-2156 3z"/>
<path d="M16700 2335 l0 -205 1575 0 1575 0 -2 203 -3 202 -1572 3 -1573 2 0
-205z"/>
<path d="M20765 2531 c5 -9 1241 -917 1272 -934 6 -4 78 36 165 91 84 54 218
138 298 187 80 48 146 89 148 90 3 3 -655 476 -762 549 l-39 26 -544 0 c-335
0 -542 -4 -538 -9z"/>
<path d="M16700 995 l0 -765 1555 0 1555 0 0 220 0 220 -1200 0 -1200 0 0 345
0 345 700 0 700 0 0 200 0 200 -1055 0 -1055 0 0 -765z"/>
<path d="M23305 1258 c-192 -138 -415 -307 -415 -316 1 -4 219 -166 486 -360
l485 -352 550 2 550 3 -750 553 c-413 304 -757 555 -764 558 -7 2 -71 -37
-142 -88z"/>
</g>
</svg>
