<?xml version="1.0" standalone="no"?>
<!DOCTYPE svg PUBLIC "-//W3C//DTD SVG 20010904//EN"
 "http://www.w3.org/TR/2001/REC-SVG-20010904/DTD/svg10.dtd">
<svg version="1.0" xmlns="http://www.w3.org/2000/svg"
 width="512.000000pt" height="512.000000pt" viewBox="0 0 512.000000 512.000000"
 preserveAspectRatio="xMidYMid meet">

<g transform="translate(0.000000,512.000000) scale(0.100000,-0.100000)"
fill="#000000" stroke="none">
<path d="M5005 3623 c-483 -58 -795 -108 -1133 -179 -1425 -299 -2666 -862
-3581 -1624 -64 -53 -156 -135 -203 -181 l-87 -84 25 -37 24 -38 276 0 275 0
152 141 c508 472 1019 824 1667 1147 794 397 1678 677 2628 832 39 6 72 16 72
21 0 9 -53 10 -115 2z"/>
<path d="M65 2850 c-8 -16 -15 -31 -15 -34 0 -2 155 -117 345 -256 l344 -251
114 63 c62 35 157 86 210 113 53 28 96 53 94 57 -1 4 -103 81 -227 172 l-225
165 -312 1 -312 0 -16 -30z"/>
<path d="M1560 2164 c-161 -124 -290 -229 -290 -235 0 -4 134 -104 297 -223
l297 -216 323 0 323 0 6 24 c3 14 3 29 0 34 -3 5 -51 42 -108 84 -57 41 -254
186 -440 321 -185 136 -342 247 -350 246 -7 0 -33 -16 -58 -35z"/>
</g>
</svg>
