<svg width="201" height="20" viewBox="0 0 201 20" fill="none" xmlns="http://www.w3.org/2000/svg">
<path d="M57.4214 1.07577H36.6731L35.932 1.66263V19.9266H41.6378V13.0317L42.1564 12.5184H57.4212C61.2743 12.5184 63.0528 11.4916 63.0528 8.85104V4.67007C63.053 2.10266 61.2745 1.07577 57.4214 1.07577ZM57.4214 7.82386C57.4214 9.07071 56.6062 9.29076 54.7537 9.29076H42.2307L41.6378 8.77742V4.88994L42.1564 4.3765H54.7535C56.532 4.3765 57.4211 4.59655 57.4211 5.8434L57.4214 7.82386ZM73.5753 4.52313L78.54 11.7113L78.2436 12.3715H67.2767L64.4609 15.819H80.7629L81.9486 16.4791L84.468 19.9265H91.063L76.6134 0.855713L73.5753 4.52313ZM139.006 16.259V11.1247L139.599 10.6111H150.64V7.38373H133.152V19.9265H158.939V16.6991H139.673L139.006 16.259ZM133.152 1.07577H159.161V4.59655H133.152V1.07577ZM104.179 4.44981H125.149C124.853 1.80927 123.149 1.07577 118.999 1.07577H103.957C99.2142 1.07577 97.7321 1.95601 97.7321 5.55002V15.5255C97.7321 19.0464 99.2142 20 103.957 20H118.999C123.223 20 124.853 19.193 125.001 16.4791H104.179L103.586 15.8922V4.88994L104.179 4.44981ZM21.853 8.41072H6.66241L6.21778 7.89738V4.66998L6.66241 4.30327H27.1882L27.4846 3.64309C26.8177 1.8826 24.9652 1.00255 21.6307 1.00255H7.32925C2.58687 1.00255 1.10484 1.8827 1.10484 5.4767V7.6039C1.10484 11.1248 2.58687 12.0783 7.32925 12.0783H22.5199L22.9645 12.5183V15.8923L22.594 16.4059H0.660205C0.660205 16.4059 0.141602 16.6991 0.141602 16.7726C0.51206 19.2665 2.21641 19.9265 6.29185 19.9265H21.8531C26.5955 19.9265 28.1517 19.0464 28.1517 15.4523V12.885C28.1516 9.36429 26.5955 8.41072 21.853 8.41072ZM175.538 1.00245H166.942L166.497 1.88259L175.982 8.77753C177.761 7.75054 179.761 6.72375 181.836 5.69676L175.538 1.00245ZM183.244 13.912L191.618 19.9265H200.213L200.584 19.1196L188.135 10.0977C186.505 11.3445 184.8 12.5916 183.244 13.912Z" fill="white" fill-opacity="0.87"/>
</svg>
